<?xml version="1.0" encoding="UTF-8" standalone="no"?>
<!DOCTYPE svg PUBLIC "-//W3C//DTD SVG 1.1//EN" "http://www.w3.org/Graphics/SVG/1.1/DTD/svg11.dtd">
<svg version="1.1" xmlns="http://www.w3.org/2000/svg" xmlns:xlink="http://www.w3.org/1999/xlink" preserveAspectRatio="xMidYMid meet" viewBox="0 0 640 640" width="640" height="640"><defs><path d="M-79.37 -66.71L151.2 -66.71L151.2 705.97L-79.37 705.97L-79.37 -66.71Z" id="g82pgYpUI"></path><path d="M151.2 -55.34L381.77 -55.34L381.77 694.6L151.2 694.6L151.2 -55.34Z" id="e1I9sEJ6sX"></path><path d="M149.65 474.22L-155.3 474.22" id="gXEfj8Vm8"></path><path d="M-309.94 5.74L-79.37 5.74L-79.37 628.42L-309.94 628.42L-309.94 5.74Z" id="bMob4KoWl"></path><path d="M381.77 -43.98L612.34 -43.98L612.34 681.73L381.77 681.73L381.77 -43.98Z" id="bKLBkvjC"></path><path d="M612.34 480.87C577.65 381 541.25 294.11 503.13 235.82C474.96 192.74 445.85 165.29 415.8 159.78C334.46 144.87 246.26 250.03 151.2 475.28" id="a5h8sWCMfD"></path></defs><g><g><g><use xlink:href="#g82pgYpUI" opacity="1" fill="#74748b" fill-opacity="0"></use><g><use xlink:href="#g82pgYpUI" opacity="1" fill-opacity="0" stroke="#86c232" stroke-width="1" stroke-opacity="1"></use></g></g><g><use xlink:href="#e1I9sEJ6sX" opacity="1" fill="#74748b" fill-opacity="0"></use><g><use xlink:href="#e1I9sEJ6sX" opacity="1" fill-opacity="0" stroke="#86c232" stroke-width="1" stroke-opacity="1"></use></g></g><g><g><use xlink:href="#gXEfj8Vm8" opacity="1" fill-opacity="0" stroke="#000000" stroke-width="1" stroke-opacity="1"></use></g></g><g><use xlink:href="#bMob4KoWl" opacity="1" fill="#74748b" fill-opacity="0"></use><g><use xlink:href="#bMob4KoWl" opacity="1" fill-opacity="0" stroke="#86c232" stroke-width="1" stroke-opacity="1"></use></g></g><g><use xlink:href="#bKLBkvjC" opacity="1" fill="#74748b" fill-opacity="0"></use><g><use xlink:href="#bKLBkvjC" opacity="1" fill-opacity="0" stroke="#86c232" stroke-width="1" stroke-opacity="1"></use></g></g><g><g><use xlink:href="#a5h8sWCMfD" opacity="1" fill-opacity="0" stroke="#000000" stroke-width="1" stroke-opacity="1"></use></g></g></g></g></svg>