<?xml version="1.0" encoding="UTF-8" standalone="no"?>
<!DOCTYPE svg PUBLIC "-//W3C//DTD SVG 1.1//EN" "http://www.w3.org/Graphics/SVG/1.1/DTD/svg11.dtd">
<svg version="1.1" xmlns="http://www.w3.org/2000/svg" xmlns:xlink="http://www.w3.org/1999/xlink" preserveAspectRatio="xMidYMid meet" viewBox="0 0 640 640" width="640" height="640"><defs><path d="M-79.37 -66.71L151.2 -66.71L151.2 705.97L-79.37 705.97L-79.37 -66.71Z" id="g82pgYpUI"></path><path d="M151.2 -55.34L381.77 -55.34L381.77 694.6L151.2 694.6L151.2 -55.34Z" id="e1I9sEJ6sX"></path><path d="M149.65 463.22L-155.3 463.22" id="acAHk0heC"></path><path d="M-309.94 5.74L-79.37 5.74L-79.37 628.42L-309.94 628.42L-309.94 5.74Z" id="bMob4KoWl"></path><path d="M381.77 -43.98L612.34 -43.98L612.34 681.73L381.77 681.73L381.77 -43.98Z" id="bKLBkvjC"></path><path d="M612.34 480.87C595 381 576.8 294.11 557.74 235.82C543.65 192.74 529.1 165.29 514.07 159.78C473.4 144.87 429.3 250.03 381.77 475.28" id="b1tLVPbAU"></path><path d="M381.77 469.23C364.43 369.37 346.23 282.48 327.17 224.19C313.08 181.11 298.53 153.66 283.5 148.15C242.83 133.23 198.73 238.4 151.2 463.64" id="b2BjztWHKT"></path></defs><g><g><g><use xlink:href="#g82pgYpUI" opacity="1" fill="#74748b" fill-opacity="0"></use><g><use xlink:href="#g82pgYpUI" opacity="1" fill-opacity="0" stroke="#86c232" stroke-width="1" stroke-opacity="1"></use></g></g><g><use xlink:href="#e1I9sEJ6sX" opacity="1" fill="#74748b" fill-opacity="0"></use><g><use xlink:href="#e1I9sEJ6sX" opacity="1" fill-opacity="0" stroke="#86c232" stroke-width="1" stroke-opacity="1"></use></g></g><g><g><use xlink:href="#acAHk0heC" opacity="1" fill-opacity="0" stroke="#000000" stroke-width="1" stroke-opacity="1"></use></g></g><g><use xlink:href="#bMob4KoWl" opacity="1" fill="#74748b" fill-opacity="0"></use><g><use xlink:href="#bMob4KoWl" opacity="1" fill-opacity="0" stroke="#86c232" stroke-width="1" stroke-opacity="1"></use></g></g><g><use xlink:href="#bKLBkvjC" opacity="1" fill="#74748b" fill-opacity="0"></use><g><use xlink:href="#bKLBkvjC" opacity="1" fill-opacity="0" stroke="#86c232" stroke-width="1" stroke-opacity="1"></use></g></g><g><g><use xlink:href="#b1tLVPbAU" opacity="1" fill-opacity="0" stroke="#000000" stroke-width="1" stroke-opacity="1"></use></g></g><g><g><use xlink:href="#b2BjztWHKT" opacity="1" fill-opacity="0" stroke="#000000" stroke-width="1" stroke-opacity="1"></use></g></g></g></g></svg>