<?xml version="1.0" encoding="UTF-8" standalone="no"?>
<!DOCTYPE svg PUBLIC "-//W3C//DTD SVG 1.1//EN" "http://www.w3.org/Graphics/SVG/1.1/DTD/svg11.dtd">
<svg version="1.1" xmlns="http://www.w3.org/2000/svg" xmlns:xlink="http://www.w3.org/1999/xlink" preserveAspectRatio="xMidYMid meet" viewBox="0 0 640 640" width="640" height="640"><defs><path d="M280.45 461.5C215.74 275.31 262.18 148.86 222.92 156.31C186.69 163.18 162.26 263.48 149.65 457.22L-155.3 457.22" id="a8azYpRkG"></path><path d="M151.2 -51.56L381.77 -51.56L381.77 698.39L151.2 698.39L151.2 -51.56Z" id="aNq1Ufq5M"></path><path d="M-309.94 5.74L-79.37 5.74L-79.37 628.42L-309.94 628.42L-309.94 5.74Z" id="a3M0Sm7pLO"></path><path d="M-79.37 -66.71L151.2 -66.71L151.2 705.97L-79.37 705.97L-79.37 -66.71Z" id="afPKeddOb"></path><path d="M381.77 477.08C374.15 377.21 366.15 290.32 357.78 232.04C351.59 188.96 345.19 161.5 338.59 155.99C320.71 141.08 301.33 246.24 280.45 471.49" id="a2svsUjLSw"></path><path d="M381.77 -43.98L612.34 -43.98L612.34 681.73L381.77 681.73L381.77 -43.98Z" id="a1fo9LEjTh"></path><path d="M502.45 482.18C493.38 382.32 483.85 295.42 473.87 237.14C466.5 194.06 458.88 166.61 451.02 161.1C429.73 146.18 406.65 251.35 381.77 476.59" id="d2YhJgqeAc"></path><path d="M612.34 491.57C604.08 391.7 595.4 304.81 586.32 246.52C579.6 203.44 572.67 175.99 565.51 170.48C546.12 155.57 525.11 260.73 502.45 485.98" id="a1mRhRKL6r"></path></defs><g><g><g><g><use xlink:href="#a8azYpRkG" opacity="1" fill-opacity="0" stroke="#000000" stroke-width="1" stroke-opacity="1"></use></g></g><g><use xlink:href="#aNq1Ufq5M" opacity="1" fill="#74748b" fill-opacity="0"></use><g><use xlink:href="#aNq1Ufq5M" opacity="1" fill-opacity="0" stroke="#86c232" stroke-width="1" stroke-opacity="1"></use></g></g><g><use xlink:href="#a3M0Sm7pLO" opacity="1" fill="#74748b" fill-opacity="0"></use><g><use xlink:href="#a3M0Sm7pLO" opacity="1" fill-opacity="0" stroke="#86c232" stroke-width="1" stroke-opacity="1"></use></g></g><g><use xlink:href="#afPKeddOb" opacity="1" fill="#74748b" fill-opacity="0"></use><g><use xlink:href="#afPKeddOb" opacity="1" fill-opacity="0" stroke="#86c232" stroke-width="1" stroke-opacity="1"></use></g></g><g><g><use xlink:href="#a2svsUjLSw" opacity="1" fill-opacity="0" stroke="#000000" stroke-width="1" stroke-opacity="1"></use></g></g><g><use xlink:href="#a1fo9LEjTh" opacity="1" fill="#74748b" fill-opacity="0"></use><g><use xlink:href="#a1fo9LEjTh" opacity="1" fill-opacity="0" stroke="#86c232" stroke-width="1" stroke-opacity="1"></use></g></g><g><g><use xlink:href="#d2YhJgqeAc" opacity="1" fill-opacity="0" stroke="#000000" stroke-width="1" stroke-opacity="1"></use></g></g><g><g><use xlink:href="#a1mRhRKL6r" opacity="1" fill-opacity="0" stroke="#000000" stroke-width="1" stroke-opacity="1"></use></g></g></g></g></svg>