<svg height="511pt" viewBox="-14 0 511 511.99992" width="511pt" xmlns="http://www.w3.org/2000/svg"><path d="m300.257812 198.019531h65.597657c10.257812 0 14.933593 12.800781 7.089843 19.410157l-346.164062 291.902343c-8.996094 7.585938-22.015625-2.34375-17.078125-13.027343l87.035156-188.273438h-85.21875c-8.753906 0-14-9.726562-9.195312-17.042969l187.964843-286.027343c2.03125-3.097657 5.488282-4.960938 9.191407-4.960938h241.304687c9.3125 0 14.414063 10.84375 8.476563 18.015625zm0 0" fill="#fff148"/><path d="m440.785156 0h-33.816406l-195.308594 223.789062c-6.210937 7.117188-1.15625 18.234376 8.289063 18.234376h14.179687c9.949219 0 14.785156 12.152343 7.5625 18.992187l-219.101562 207.417969-12.886719 27.871094c-4.9375 10.683593 8.082031 20.613281 17.078125 13.027343l346.164062-291.902343c7.84375-6.609376 3.167969-19.410157-7.089843-19.410157h-65.597657l149-180.003906c5.9375-7.171875.835938-18.015625-8.472656-18.015625zm0 0" fill="#ffe600"/><path d="m461.972656 425.742188h-292.628906c-12.152344 0-22.003906-9.851563-22.003906-22.003907v-99.007812c0-12.152344 9.851562-22.003907 22.003906-22.003907h292.628906c12.152344 0 22 9.851563 22 22.003907v99.007812c0 12.152344-9.847656 22.003907-22 22.003907zm0 0" fill="#8fe7ff"/><path d="m461.972656 282.726562v102.3125c0 12.148438-9.851562 22-22.003906 22h-292.351562c1.59375 10.582032 10.699218 18.703126 21.726562 18.703126h292.628906c12.152344 0 22-9.851563 22-22.003907v-99.007812c0-12.152344-9.847656-22.003907-22-22.003907zm0 0" fill="#53daf9"/><g fill="#595959"><path d="m206.746094 308.578125c-18.5 0-33.550782 15.054687-33.550782 33.554687v49.503907c0 4.558593 3.691407 8.253906 8.25 8.253906 4.558594 0 8.25-3.695313 8.25-8.253906v-29.152344h34.105469v29.152344c0 4.558593 3.691407 8.253906 8.25 8.253906 4.558594 0 8.25-3.695313 8.25-8.253906v-49.503907c0-18.5-15.050781-33.554687-33.554687-33.554687zm-17.050782 37.40625v-3.851563c0-9.402343 7.648438-17.050781 17.050782-17.050781s17.054687 7.648438 17.054687 17.050781v3.851563zm0 0"/><path d="m425.667969 307.480469c-18.5 0-33.550781 15.050781-33.550781 33.550781v24.203125c0 18.5 15.050781 33.554687 33.550781 33.554687 18.503906 0 33.554687-15.054687 33.554687-33.554687v-24.203125c0-18.5-15.050781-33.550781-33.554687-33.550781zm17.050781 57.753906c0 9.402344-7.648438 17.054687-17.050781 17.054687-9.402344 0-17.050781-7.648437-17.050781-17.054687v-24.199219c0-9.402344 7.648437-17.054687 17.050781-17.054687 9.402343 0 17.050781 7.652343 17.050781 17.054687zm0 0"/><path d="m307.957031 308.578125c-4.554687 0-8.25 3.695313-8.25 8.253906v49.503907c0 9.402343-7.648437 17.050781-17.050781 17.050781s-17.054688-7.648438-17.054688-17.050781v-49.503907c0-4.558593-3.691406-8.253906-8.25-8.253906-4.558593 0-8.25 3.695313-8.25 8.253906v49.503907c0 18.5 15.050782 33.554687 33.550782 33.554687 18.503906 0 33.554687-15.054687 33.554687-33.554687v-49.503907c0-4.558593-3.691406-8.253906-8.25-8.253906zm0 0"/><path d="m381.664062 307.480469h-50.605468c-4.554688 0-8.25 3.695312-8.25 8.25 0 4.558593 3.695312 8.25 8.25 8.25h17.054687v67.660156c0 4.554687 3.691407 8.25 8.25 8.25 4.554688 0 8.25-3.695313 8.25-8.25v-67.660156h17.050781c4.558594 0 8.253907-3.691407 8.253907-8.25-.003907-4.554688-3.695313-8.25-8.253907-8.25zm0 0"/></g></svg>